<svg width="83" height="118" viewBox="0 0 83 118" fill="none" xmlns="http://www.w3.org/2000/svg">
<g clip-path="url(#clip0_65_2600)">
<path d="M54.2299 22.91V15.04H48.9199V6.97H44.9899V0H37.2699V6.97H33.3399V15.04H28.0299V22.91L20.3999 22.9V71.2H61.8599V22.91H54.2299Z" fill="#E1B141"/>
<g style="mix-blend-mode:multiply">
<path d="M54.23 22.91V15.04H48.92V6.97H44.99V0H42.48V21.18H49.3V30.63H53.5V71.2H61.86V22.91H54.23Z" fill="#BABCBE"/>
</g>
<path d="M51.03 39.7201H47.73V36.4201H44.43V33.1201H37.83V36.4201L34.53 36.4301V39.7201H31.23V46.3201H34.53V49.6301L37.83 49.6201V53.6601H44.43V49.6201L47.73 49.6301V46.3201H51.03V39.7201Z" fill="white"/>
<path d="M74.1998 64.8899V69.7699H56.0498V77.8299H62.7298V87.3799H70.7998V77.8299L82.2598 77.8399V77.6199V64.8899H74.1998Z" fill="#393A3B"/>
<path d="M26.21 70.17H8.07V65.29H0V78.02V78.23H11.46V87.78H19.53V78.23L26.2 78.24L26.21 70.17Z" fill="#393A3B"/>
<path class="flame1" d="M51.5802 76.1399L30.6802 76.1299V97.0399H34.2902V110.18H37.2802V117.87H44.9902V110.18H47.9702V97.0399H51.5802V76.1399Z" fill="#B1424A"/>
<path class="flame2" d="M46.0899 76.1399L36.1699 76.1299V86.0599H37.8799V92.2999H39.2999V95.9599H42.9599V92.2999H44.3799V86.0599H46.0899V76.1399Z" fill="#E1B141"/>
</g>
<defs>
<clipPath id="clip0_65_2600">
<rect width="82.26" height="117.87" fill="white"/>
</clipPath>
</defs>
</svg>
