<?xml version="1.0" encoding="UTF-8"?>
<svg xmlns="http://www.w3.org/2000/svg" version="1.1" viewBox="0 0 3517.6 3487">
  <defs>
    <style>
      .cls-1 {
        fill: #fff1e8;
      }

      .cls-2 {
        fill: #c2c3c7;
      }

      .cls-3 {
        fill: #83769c;
      }

      .cls-4 {
        fill: #29adff;
      }

      .cls-5 {
        fill: #69ddfa;
      }
    </style>
  </defs>
  <!-- Generator: Adobe Illustrator 28.6.0, SVG Export Plug-In . SVG Version: 1.2.0 Build 709)  -->
  <g>
    <g id="Layer_1">
      <rect x="508.5" y="818.6" width="63.1" height="63.1"/>
      <rect x="571.5" y="818.6" width="63.1" height="63.1"/>
      <rect x="382.3" y="881.7" width="63.1" height="63.1"/>
      <rect x="445.4" y="881.7" width="63.1" height="63.1"/>
      <rect class="cls-1" x="508.5" y="881.7" width="63.1" height="63.1"/>
      <rect class="cls-1" x="571.5" y="881.7" width="63.1" height="63.1"/>
      <rect x="634.6" y="881.7" width="63.1" height="63.1"/>
      <rect x="697.7" y="881.7" width="63.1" height="63.1"/>
      <rect x="256.1" y="944.7" width="63.1" height="63.1"/>
      <rect x="319.2" y="944.7" width="63.1" height="63.1"/>
      <rect class="cls-1" x="382.3" y="944.7" width="63.1" height="63.1"/>
      <rect class="cls-1" x="445.4" y="944.7" width="63.1" height="63.1"/>
      <rect class="cls-1" x="508.5" y="944.7" width="63.1" height="63.1"/>
      <rect class="cls-1" x="571.5" y="944.7" width="63.1" height="63.1"/>
      <rect class="cls-1" x="634.6" y="944.7" width="63.1" height="63.1"/>
      <rect class="cls-1" x="697.7" y="944.7" width="63.1" height="63.1"/>
      <rect x="760.8" y="944.7" width="63.1" height="63.1"/>
      <rect x="823.9" y="944.7" width="63.1" height="63.1"/>
      <rect x="130" y="1007.8" width="63.1" height="63.1"/>
      <rect x="193.1" y="1007.8" width="63.1" height="63.1"/>
      <rect class="cls-1" x="256.1" y="1007.8" width="63.1" height="63.1"/>
      <rect class="cls-1" x="319.2" y="1007.8" width="63.1" height="63.1"/>
      <rect x="382.3" y="1007.8" width="63.1" height="63.1"/>
      <rect x="445.4" y="1007.8" width="63.1" height="63.1"/>
      <rect class="cls-5" x="508.5" y="1007.8" width="63.1" height="63.1"/>
      <rect class="cls-5" x="571.5" y="1007.8" width="63.1" height="63.1"/>
      <rect class="cls-5" x="634.6" y="1007.8" width="63.1" height="63.1"/>
      <rect class="cls-5" x="697.7" y="1007.8" width="63.1" height="63.1"/>
      <rect class="cls-5" x="760.8" y="1007.8" width="63.1" height="63.1"/>
      <rect class="cls-4" x="823.9" y="1007.8" width="63.1" height="63.1"/>
      <rect x="886.9" y="1007.8" width="63.1" height="63.1"/>
      <rect x="950" y="1007.8" width="63.1" height="63.1"/>
      <rect x="66.9" y="1070.9" width="63.1" height="63.1"/>
      <rect class="cls-1" x="130" y="1070.9" width="63.1" height="63.1"/>
      <rect class="cls-1" x="193.1" y="1070.9" width="63.1" height="63.1"/>
      <rect class="cls-1" x="256.1" y="1070.9" width="63.1" height="63.1"/>
      <rect class="cls-1" x="319.2" y="1070.9" width="63.1" height="63.1"/>
      <rect class="cls-1" x="382.3" y="1070.9" width="63.1" height="63.1"/>
      <rect class="cls-1" x="445.4" y="1070.9" width="63.1" height="63.1"/>
      <rect x="508.5" y="1070.9" width="63.1" height="63.1"/>
      <rect x="571.5" y="1070.9" width="63.1" height="63.1"/>
      <rect class="cls-4" x="634.6" y="1070.9" width="63.1" height="63.1"/>
      <rect class="cls-5" x="697.7" y="1070.9" width="63.1" height="63.1"/>
      <rect x="760.8" y="1070.9" width="63.1" height="63.1"/>
      <rect x="823.9" y="1070.9" width="63.1" height="63.1"/>
      <rect class="cls-1" x="886.9" y="1070.9" width="63.1" height="63.1"/>
      <rect class="cls-1" x="950" y="1070.9" width="63.1" height="63.1"/>
      <rect x="1013.1" y="1070.9" width="63.1" height="63.1"/>
      <rect x="1076.2" y="1070.9" width="63.1" height="63.1"/>
      <rect x="130" y="1134" width="63.1" height="63.1"/>
      <rect x="193.1" y="1134" width="63.1" height="63.1"/>
      <rect class="cls-5" x="256.1" y="1134" width="63.1" height="63.1"/>
      <rect class="cls-5" x="319.2" y="1134" width="63.1" height="63.1"/>
      <rect class="cls-5" x="382.3" y="1134" width="63.1" height="63.1"/>
      <rect class="cls-5" x="445.4" y="1134" width="63.1" height="63.1"/>
      <rect class="cls-5" x="508.5" y="1134" width="63.1" height="63.1"/>
      <rect class="cls-4" x="571.5" y="1134" width="63.1" height="63.1"/>
      <rect x="634.6" y="1134" width="63.1" height="63.1"/>
      <rect x="697.7" y="1134" width="63.1" height="63.1"/>
      <rect class="cls-1" x="760.8" y="1134" width="63.1" height="63.1"/>
      <rect class="cls-1" x="823.9" y="1134" width="63.1" height="63.1"/>
      <rect class="cls-1" x="886.9" y="1134" width="63.1" height="63.1"/>
      <rect class="cls-1" x="950" y="1134" width="63.1" height="63.1"/>
      <rect class="cls-1" x="1013.1" y="1134" width="63.1" height="63.1"/>
      <rect class="cls-1" x="1076.2" y="1134" width="63.1" height="63.1"/>
      <rect x="1139.2" y="1134" width="63.1" height="63.1"/>
      <rect x="1202.3" y="1134" width="63.1" height="63.1"/>
      <rect x="256.1" y="1197.1" width="63.1" height="63.1"/>
      <rect x="319.2" y="1197.1" width="63.1" height="63.1"/>
      <rect class="cls-5" x="382.3" y="1197.1" width="63.1" height="63.1"/>
      <rect class="cls-4" x="445.4" y="1197.1" width="63.1" height="63.1"/>
      <rect x="508.5" y="1197.1" width="63.1" height="63.1"/>
      <rect x="571.5" y="1197.1" width="63.1" height="63.1"/>
      <rect class="cls-1" x="634.6" y="1197.1" width="63.1" height="63.1"/>
      <rect class="cls-1" x="697.7" y="1197.1" width="63.1" height="63.1"/>
      <rect x="760.8" y="1197.1" width="63.1" height="63.1"/>
      <rect x="823.9" y="1197.1" width="63.1" height="63.1"/>
      <rect class="cls-5" x="886.9" y="1197.1" width="63.1" height="63.1"/>
      <rect class="cls-5" x="950" y="1197.1" width="63.1" height="63.1"/>
      <rect class="cls-5" x="1013.1" y="1197.1" width="63.1" height="63.1"/>
      <rect class="cls-5" x="1076.2" y="1197.1" width="63.1" height="63.1"/>
      <rect class="cls-5" x="1139.2" y="1197.1" width="63.1" height="63.1"/>
      <rect class="cls-5" x="1202.3" y="1197.1" width="63.1" height="63.1"/>
      <rect x="1265.4" y="1197.1" width="63.1" height="63.1"/>
      <rect x="1328.5" y="1197.1" width="63.1" height="63.1"/>
      <rect x="382.3" y="1260.1" width="63.1" height="63.1"/>
      <rect x="445.4" y="1260.1" width="63.1" height="63.1"/>
      <rect class="cls-1" x="508.5" y="1260.1" width="63.1" height="63.1"/>
      <rect class="cls-1" x="571.5" y="1260.1" width="63.1" height="63.1"/>
      <rect class="cls-1" x="634.6" y="1260.1" width="63.1" height="63.1"/>
      <rect class="cls-1" x="697.7" y="1260.1" width="63.1" height="63.1"/>
      <rect class="cls-1" x="760.8" y="1260.1" width="63.1" height="63.1"/>
      <rect class="cls-1" x="823.9" y="1260.1" width="63.1" height="63.1"/>
      <rect x="886.9" y="1260.1" width="63.1" height="63.1"/>
      <rect x="950" y="1260.1" width="63.1" height="63.1"/>
      <rect class="cls-5" x="1013.1" y="1260.1" width="63.1" height="63.1"/>
      <rect class="cls-4" x="1076.2" y="1260.1" width="63.1" height="63.1"/>
      <rect x="1139.2" y="1260.1" width="63.1" height="63.1"/>
      <rect x="1202.3" y="1260.1" width="63.1" height="63.1"/>
      <rect class="cls-1" x="1265.4" y="1260.1" width="63.1" height="63.1"/>
      <rect class="cls-1" x="1328.5" y="1260.1" width="63.1" height="63.1"/>
      <rect x="1391.6" y="1260.1" width="63.1" height="63.1"/>
      <rect x="1454.6" y="1260.1" width="63.1" height="63.1"/>
      <rect x="1833.1" y="1260.1" width="63.1" height="63.1"/>
      <rect x="1896.2" y="1260.1" width="63.1" height="63.1"/>
      <rect x="1959.3" y="1260.1" width="63.1" height="63.1"/>
      <rect x="2022.3" y="1260.1" width="63.1" height="63.1"/>
      <rect x="2085.4" y="1260.1" width="63.1" height="63.1"/>
      <rect x="508.5" y="1323.2" width="63.1" height="63.1"/>
      <rect x="571.5" y="1323.2" width="63.1" height="63.1"/>
      <rect class="cls-5" x="634.6" y="1323.2" width="63.1" height="63.1"/>
      <rect class="cls-5" x="697.7" y="1323.2" width="63.1" height="63.1"/>
      <rect class="cls-5" x="760.8" y="1323.2" width="63.1" height="63.1"/>
      <rect class="cls-5" x="823.9" y="1323.2" width="63.1" height="63.1"/>
      <rect class="cls-5" x="886.9" y="1323.2" width="63.1" height="63.1"/>
      <rect class="cls-4" x="950" y="1323.2" width="63.1" height="63.1"/>
      <rect x="1013.1" y="1323.2" width="63.1" height="63.1"/>
      <rect x="1076.2" y="1323.2" width="63.1" height="63.1"/>
      <rect class="cls-1" x="1139.2" y="1323.2" width="63.1" height="63.1"/>
      <rect class="cls-1" x="1202.3" y="1323.2" width="63.1" height="63.1"/>
      <rect class="cls-1" x="1265.4" y="1323.2" width="63.1" height="63.1"/>
      <rect class="cls-1" x="1328.5" y="1323.2" width="63.1" height="63.1"/>
      <rect class="cls-1" x="1391.6" y="1323.2" width="63.1" height="63.1"/>
      <rect class="cls-1" x="1454.6" y="1323.2" width="63.1" height="63.1"/>
      <rect x="1517.7" y="1323.2" width="63.1" height="63.1"/>
      <rect x="1580.8" y="1323.2" width="63.1" height="63.1"/>
      <rect x="1707" y="1323.2" width="63.1" height="63.1"/>
      <rect x="1770" y="1323.2" width="63.1" height="63.1"/>
      <rect class="cls-2" x="1833.1" y="1323.2" width="63.1" height="63.1"/>
      <rect class="cls-2" x="1896.2" y="1323.2" width="63.1" height="63.1"/>
      <rect x="1959.3" y="1323.2" width="63.1" height="63.1"/>
      <rect class="cls-2" x="2022.3" y="1323.2" width="63.1" height="63.1"/>
      <rect class="cls-1" x="2085.4" y="1323.2" width="63.1" height="63.1"/>
      <rect x="2148.5" y="1323.2" width="63.1" height="63.1"/>
      <rect x="634.6" y="1386.3" width="63.1" height="63.1"/>
      <rect x="697.7" y="1386.3" width="63.1" height="63.1"/>
      <rect class="cls-5" x="760.8" y="1386.3" width="63.1" height="63.1"/>
      <rect class="cls-5" x="823.9" y="1386.3" width="63.1" height="63.1"/>
      <rect x="886.9" y="1386.3" width="63.1" height="63.1"/>
      <rect x="950" y="1386.3" width="63.1" height="63.1"/>
      <rect class="cls-1" x="1013.1" y="1386.3" width="63.1" height="63.1"/>
      <rect class="cls-1" x="1076.2" y="1386.3" width="63.1" height="63.1"/>
      <rect x="1139.2" y="1386.3" width="63.1" height="63.1"/>
      <rect x="1202.3" y="1386.3" width="63.1" height="63.1"/>
      <rect class="cls-5" x="1265.4" y="1386.3" width="63.1" height="63.1"/>
      <rect class="cls-5" x="1328.5" y="1386.3" width="63.1" height="63.1"/>
      <rect class="cls-5" x="1391.6" y="1386.3" width="63.1" height="63.1"/>
      <rect class="cls-5" x="1454.6" y="1386.3" width="63.1" height="63.1"/>
      <rect class="cls-4" x="1517.7" y="1386.3" width="63.1" height="63.1"/>
      <rect x="1580.8" y="1386.3" width="63.1" height="63.1"/>
      <rect x="1643.9" y="1386.3" width="63.1" height="63.1"/>
      <rect x="1707" y="1386.3" width="63.1" height="63.1"/>
      <rect x="1770" y="1386.3" width="63.1" height="63.1"/>
      <rect x="1833.1" y="1386.3" width="63.1" height="63.1"/>
      <rect class="cls-1" x="1896.2" y="1386.3" width="63.1" height="63.1"/>
      <rect class="cls-1" x="1959.3" y="1386.3" width="63.1" height="63.1"/>
      <rect x="2022.3" y="1386.3" width="63.1" height="63.1"/>
      <rect class="cls-1" x="2085.4" y="1386.3" width="63.1" height="63.1"/>
      <rect class="cls-1" x="2148.5" y="1386.3" width="63.1" height="63.1"/>
      <rect x="2211.6" y="1386.3" width="63.1" height="63.1"/>
      <rect x="760.8" y="1449.4" width="63.1" height="63.1"/>
      <rect x="823.9" y="1449.4" width="63.1" height="63.1"/>
      <rect class="cls-1" x="886.9" y="1449.4" width="63.1" height="63.1"/>
      <rect class="cls-1" x="950" y="1449.4" width="63.1" height="63.1"/>
      <rect class="cls-1" x="1013.1" y="1449.4" width="63.1" height="63.1"/>
      <rect class="cls-1" x="1076.2" y="1449.4" width="63.1" height="63.1"/>
      <rect class="cls-1" x="1139.2" y="1449.4" width="63.1" height="63.1"/>
      <rect class="cls-1" x="1202.3" y="1449.4" width="63.1" height="63.1"/>
      <rect x="1265.4" y="1449.4" width="63.1" height="63.1"/>
      <rect x="1328.5" y="1449.4" width="63.1" height="63.1"/>
      <rect class="cls-4" x="1391.6" y="1449.4" width="63.1" height="63.1"/>
      <rect x="1454.6" y="1449.4" width="63.1" height="63.1"/>
      <rect x="1517.7" y="1449.4" width="63.1" height="63.1"/>
      <rect class="cls-3" x="1580.8" y="1449.4" width="63.1" height="63.1"/>
      <rect class="cls-2" x="1643.9" y="1449.4" width="63.1" height="63.1"/>
      <rect class="cls-2" x="1707" y="1449.4" width="63.1" height="63.1"/>
      <rect class="cls-2" x="1770" y="1449.4" width="63.1" height="63.1"/>
      <rect class="cls-1" x="1833.1" y="1449.4" width="63.1" height="63.1"/>
      <rect x="1896.2" y="1449.4" width="63.1" height="63.1"/>
      <rect class="cls-1" x="1959.3" y="1449.4" width="63.1" height="63.1"/>
      <rect class="cls-1" x="2022.3" y="1449.4" width="63.1" height="63.1"/>
      <rect x="2085.4" y="1449.4" width="63.1" height="63.1"/>
      <rect class="cls-2" x="2148.5" y="1449.4" width="63.1" height="63.1"/>
      <rect class="cls-1" x="2211.6" y="1449.4" width="63.1" height="63.1"/>
      <rect x="2274.7" y="1449.4" width="63.1" height="63.1"/>
      <rect x="886.9" y="1512.5" width="63.1" height="63.1"/>
      <rect x="950" y="1512.5" width="63.1" height="63.1"/>
      <rect class="cls-5" x="1013.1" y="1512.5" width="63.1" height="63.1"/>
      <rect class="cls-5" x="1076.2" y="1512.5" width="63.1" height="63.1"/>
      <rect class="cls-5" x="1139.2" y="1512.5" width="63.1" height="63.1"/>
      <rect class="cls-5" x="1202.3" y="1512.5" width="63.1" height="63.1"/>
      <rect class="cls-4" x="1265.4" y="1512.5" width="63.1" height="63.1"/>
      <rect x="1328.5" y="1512.5" width="63.1" height="63.1"/>
      <rect x="1391.6" y="1512.5" width="63.1" height="63.1"/>
      <rect class="cls-3" x="1454.6" y="1512.5" width="63.1" height="63.1"/>
      <rect class="cls-2" x="1517.7" y="1512.5" width="63.1" height="63.1"/>
      <rect class="cls-2" x="1580.8" y="1512.5" width="63.1" height="63.1"/>
      <rect class="cls-2" x="1643.9" y="1512.5" width="63.1" height="63.1"/>
      <rect class="cls-1" x="1707" y="1512.5" width="63.1" height="63.1"/>
      <rect class="cls-1" x="1770" y="1512.5" width="63.1" height="63.1"/>
      <rect class="cls-1" x="1833.1" y="1512.5" width="63.1" height="63.1"/>
      <rect class="cls-1" x="1896.2" y="1512.5" width="63.1" height="63.1"/>
      <rect x="1959.3" y="1512.5" width="63.1" height="63.1"/>
      <rect class="cls-2" x="2022.3" y="1512.5" width="63.1" height="63.1"/>
      <rect class="cls-1" x="2085.4" y="1512.5" width="63.1" height="63.1"/>
      <rect x="2148.5" y="1512.5" width="63.1" height="63.1"/>
      <rect class="cls-2" x="2211.6" y="1512.5" width="63.1" height="63.1"/>
      <rect x="2274.7" y="1512.5" width="63.1" height="63.1"/>
      <rect x="1013.1" y="1575.5" width="63.1" height="63.1"/>
      <rect x="1076.2" y="1575.5" width="63.1" height="63.1"/>
      <rect class="cls-4" x="1139.2" y="1575.5" width="63.1" height="63.1"/>
      <rect x="1202.3" y="1575.5" width="63.1" height="63.1"/>
      <rect x="1265.4" y="1575.5" width="63.1" height="63.1"/>
      <rect class="cls-3" x="1328.5" y="1575.5" width="63.1" height="63.1"/>
      <rect class="cls-2" x="1391.6" y="1575.5" width="63.1" height="63.1"/>
      <rect class="cls-2" x="1454.6" y="1575.5" width="63.1" height="63.1"/>
      <rect class="cls-2" x="1517.7" y="1575.5" width="63.1" height="63.1"/>
      <rect class="cls-1" x="1580.8" y="1575.5" width="63.1" height="63.1"/>
      <rect class="cls-1" x="1643.9" y="1575.5" width="63.1" height="63.1"/>
      <rect class="cls-1" x="1707" y="1575.5" width="63.1" height="63.1"/>
      <rect class="cls-1" x="1770" y="1575.5" width="63.1" height="63.1"/>
      <rect class="cls-2" x="1833.1" y="1575.5" width="63.1" height="63.1"/>
      <rect class="cls-2" x="1896.2" y="1575.5" width="63.1" height="63.1"/>
      <rect class="cls-1" x="1959.3" y="1575.5" width="63.1" height="63.1"/>
      <rect x="2022.3" y="1575.5" width="63.1" height="63.1"/>
      <rect class="cls-2" x="2085.4" y="1575.5" width="63.1" height="63.1"/>
      <rect x="2148.5" y="1575.5" width="63.1" height="63.1"/>
      <rect class="cls-2" x="2211.6" y="1575.5" width="63.1" height="63.1"/>
      <rect x="2274.7" y="1575.5" width="63.1" height="63.1"/>
      <rect x="1076.2" y="1638.6" width="63.1" height="63.1"/>
      <rect x="1139.2" y="1638.6" width="63.1" height="63.1"/>
      <rect class="cls-3" x="1202.3" y="1638.6" width="63.1" height="63.1"/>
      <rect class="cls-2" x="1265.4" y="1638.6" width="63.1" height="63.1"/>
      <rect class="cls-2" x="1328.5" y="1638.6" width="63.1" height="63.1"/>
      <rect class="cls-2" x="1391.6" y="1638.6" width="63.1" height="63.1"/>
      <rect class="cls-1" x="1454.6" y="1638.6" width="63.1" height="63.1"/>
      <rect class="cls-1" x="1517.7" y="1638.6" width="63.1" height="63.1"/>
      <rect class="cls-1" x="1580.8" y="1638.6" width="63.1" height="63.1"/>
      <rect class="cls-1" x="1643.9" y="1638.6" width="63.1" height="63.1"/>
      <rect class="cls-2" x="1707" y="1638.6" width="63.1" height="63.1"/>
      <rect class="cls-2" x="1770" y="1638.6" width="63.1" height="63.1"/>
      <rect class="cls-1" x="1833.1" y="1638.6" width="63.1" height="63.1"/>
      <rect class="cls-1" x="1896.2" y="1638.6" width="63.1" height="63.1"/>
      <rect class="cls-2" x="1959.3" y="1638.6" width="63.1" height="63.1"/>
      <rect x="2022.3" y="1638.6" width="63.1" height="63.1"/>
      <rect class="cls-2" x="2085.4" y="1638.6" width="63.1" height="63.1"/>
      <rect x="2148.5" y="1638.6" width="63.1" height="63.1"/>
      <rect x="2211.6" y="1638.6" width="63.1" height="63.1"/>
      <rect x="2274.7" y="1638.6" width="63.1" height="63.1"/>
      <rect x="950" y="1701.7" width="63.1" height="63.1"/>
      <rect x="1013.1" y="1701.7" width="63.1" height="63.1"/>
      <rect class="cls-2" x="1076.2" y="1701.7" width="63.1" height="63.1"/>
      <rect class="cls-2" x="1139.2" y="1701.7" width="63.1" height="63.1"/>
      <rect x="1202.3" y="1701.7" width="63.1" height="63.1"/>
      <rect x="1265.4" y="1701.7" width="63.1" height="63.1"/>
      <rect class="cls-1" x="1328.5" y="1701.7" width="63.1" height="63.1"/>
      <rect class="cls-1" x="1391.6" y="1701.7" width="63.1" height="63.1"/>
      <rect class="cls-1" x="1454.6" y="1701.7" width="63.1" height="63.1"/>
      <rect class="cls-1" x="1517.7" y="1701.7" width="63.1" height="63.1"/>
      <rect class="cls-2" x="1580.8" y="1701.7" width="63.1" height="63.1"/>
      <rect class="cls-2" x="1643.9" y="1701.7" width="63.1" height="63.1"/>
      <rect class="cls-1" x="1707" y="1701.7" width="63.1" height="63.1"/>
      <rect class="cls-1" x="1770" y="1701.7" width="63.1" height="63.1"/>
      <rect class="cls-2" x="1833.1" y="1701.7" width="63.1" height="63.1"/>
      <rect class="cls-2" x="1896.2" y="1701.7" width="63.1" height="63.1"/>
      <rect class="cls-2" x="1959.3" y="1701.7" width="63.1" height="63.1"/>
      <rect x="2022.3" y="1701.7" width="63.1" height="63.1"/>
      <rect x="2085.4" y="1701.7" width="63.1" height="63.1"/>
      <rect class="cls-1" x="2148.5" y="1701.7" width="63.1" height="63.1"/>
      <rect class="cls-1" x="2211.6" y="1701.7" width="63.1" height="63.1"/>
      <rect x="2274.7" y="1701.7" width="63.1" height="63.1"/>
      <rect x="2337.7" y="1701.7" width="63.1" height="63.1"/>
      <rect x="886.9" y="1764.8" width="63.1" height="63.1"/>
      <rect class="cls-1" x="950" y="1764.8" width="63.1" height="63.1"/>
      <rect class="cls-1" x="1013.1" y="1764.8" width="63.1" height="63.1"/>
      <rect class="cls-2" x="1076.2" y="1764.8" width="63.1" height="63.1"/>
      <rect class="cls-2" x="1139.2" y="1764.8" width="63.1" height="63.1"/>
      <rect class="cls-1" x="1202.3" y="1764.8" width="63.1" height="63.1"/>
      <rect class="cls-1" x="1265.4" y="1764.8" width="63.1" height="63.1"/>
      <rect x="1328.5" y="1764.8" width="63.1" height="63.1"/>
      <rect class="cls-1" x="1391.6" y="1764.8" width="63.1" height="63.1"/>
      <rect class="cls-2" x="1454.6" y="1764.8" width="63.1" height="63.1"/>
      <rect class="cls-2" x="1517.7" y="1764.8" width="63.1" height="63.1"/>
      <rect class="cls-1" x="1580.8" y="1764.8" width="63.1" height="63.1"/>
      <rect class="cls-1" x="1643.9" y="1764.8" width="63.1" height="63.1"/>
      <rect class="cls-2" x="1707" y="1764.8" width="63.1" height="63.1"/>
      <rect class="cls-2" x="1770" y="1764.8" width="63.1" height="63.1"/>
      <rect class="cls-2" x="1833.1" y="1764.8" width="63.1" height="63.1"/>
      <rect x="1896.2" y="1764.8" width="63.1" height="63.1"/>
      <rect x="1959.3" y="1764.8" width="63.1" height="63.1"/>
      <rect class="cls-1" x="2022.3" y="1764.8" width="63.1" height="63.1"/>
      <rect class="cls-1" x="2085.4" y="1764.8" width="63.1" height="63.1"/>
      <rect class="cls-1" x="2148.5" y="1764.8" width="63.1" height="63.1"/>
      <rect class="cls-1" x="2211.6" y="1764.8" width="63.1" height="63.1"/>
      <rect class="cls-1" x="2274.7" y="1764.8" width="63.1" height="63.1"/>
      <rect class="cls-1" x="2337.7" y="1764.8" width="63.1" height="63.1"/>
      <rect x="2400.8" y="1764.8" width="63.1" height="63.1"/>
      <rect x="2463.9" y="1764.8" width="63.1" height="63.1"/>
      <rect x="823.9" y="1827.8" width="63.1" height="63.1"/>
      <rect class="cls-3" x="886.9" y="1827.8" width="63.1" height="63.1"/>
      <rect class="cls-3" x="950" y="1827.8" width="63.1" height="63.1"/>
      <rect class="cls-3" x="1013.1" y="1827.8" width="63.1" height="63.1"/>
      <rect class="cls-1" x="1076.2" y="1827.8" width="63.1" height="63.1"/>
      <rect class="cls-1" x="1139.2" y="1827.8" width="63.1" height="63.1"/>
      <rect class="cls-1" x="1202.3" y="1827.8" width="63.1" height="63.1"/>
      <rect class="cls-1" x="1265.4" y="1827.8" width="63.1" height="63.1"/>
      <rect class="cls-2" x="1328.5" y="1827.8" width="63.1" height="63.1"/>
      <rect x="1391.6" y="1827.8" width="63.1" height="63.1"/>
      <rect class="cls-1" x="1454.6" y="1827.8" width="63.1" height="63.1"/>
      <rect class="cls-1" x="1517.7" y="1827.8" width="63.1" height="63.1"/>
      <rect class="cls-2" x="1580.8" y="1827.8" width="63.1" height="63.1"/>
      <rect class="cls-2" x="1643.9" y="1827.8" width="63.1" height="63.1"/>
      <rect class="cls-2" x="1707" y="1827.8" width="63.1" height="63.1"/>
      <rect x="1770" y="1827.8" width="63.1" height="63.1"/>
      <rect x="1833.1" y="1827.8" width="63.1" height="63.1"/>
      <rect class="cls-1" x="1896.2" y="1827.8" width="63.1" height="63.1"/>
      <rect class="cls-1" x="1959.3" y="1827.8" width="63.1" height="63.1"/>
      <rect x="2022.3" y="1827.8" width="63.1" height="63.1"/>
      <rect x="2085.4" y="1827.8" width="63.1" height="63.1"/>
      <rect class="cls-5" x="2148.5" y="1827.8" width="63.1" height="63.1"/>
      <rect class="cls-5" x="2211.6" y="1827.8" width="63.1" height="63.1"/>
      <rect class="cls-5" x="2274.7" y="1827.8" width="63.1" height="63.1"/>
      <rect class="cls-5" x="2337.7" y="1827.8" width="63.1" height="63.1"/>
      <rect class="cls-5" x="2400.8" y="1827.8" width="63.1" height="63.1"/>
      <rect class="cls-4" x="2463.9" y="1827.8" width="63.1" height="63.1"/>
      <rect x="2527" y="1827.8" width="63.1" height="63.1"/>
      <rect x="2590.1" y="1827.8" width="63.1" height="63.1"/>
      <rect x="823.9" y="1890.9" width="63.1" height="63.1"/>
      <rect class="cls-3" x="886.9" y="1890.9" width="63.1" height="63.1"/>
      <rect class="cls-3" x="950" y="1890.9" width="63.1" height="63.1"/>
      <rect class="cls-3" x="1013.1" y="1890.9" width="63.1" height="63.1"/>
      <rect class="cls-3" x="1076.2" y="1890.9" width="63.1" height="63.1"/>
      <rect class="cls-1" x="1139.2" y="1890.9" width="63.1" height="63.1"/>
      <rect class="cls-2" x="1202.3" y="1890.9" width="63.1" height="63.1"/>
      <rect class="cls-2" x="1265.4" y="1890.9" width="63.1" height="63.1"/>
      <rect class="cls-1" x="1328.5" y="1890.9" width="63.1" height="63.1"/>
      <rect class="cls-1" x="1391.6" y="1890.9" width="63.1" height="63.1"/>
      <rect x="1454.6" y="1890.9" width="63.1" height="63.1"/>
      <rect class="cls-2" x="1517.7" y="1890.9" width="63.1" height="63.1"/>
      <rect class="cls-2" x="1580.8" y="1890.9" width="63.1" height="63.1"/>
      <rect x="1643.9" y="1890.9" width="63.1" height="63.1"/>
      <rect x="1707" y="1890.9" width="63.1" height="63.1"/>
      <rect class="cls-1" x="1770" y="1890.9" width="63.1" height="63.1"/>
      <rect class="cls-1" x="1833.1" y="1890.9" width="63.1" height="63.1"/>
      <rect class="cls-1" x="1896.2" y="1890.9" width="63.1" height="63.1"/>
      <rect class="cls-1" x="1959.3" y="1890.9" width="63.1" height="63.1"/>
      <rect class="cls-1" x="2022.3" y="1890.9" width="63.1" height="63.1"/>
      <rect class="cls-1" x="2085.4" y="1890.9" width="63.1" height="63.1"/>
      <rect x="2148.5" y="1890.9" width="63.1" height="63.1"/>
      <rect x="2211.6" y="1890.9" width="63.1" height="63.1"/>
      <rect class="cls-5" x="2274.7" y="1890.9" width="63.1" height="63.1"/>
      <rect class="cls-4" x="2337.7" y="1890.9" width="63.1" height="63.1"/>
      <rect x="2400.8" y="1890.9" width="63.1" height="63.1"/>
      <rect x="2463.9" y="1890.9" width="63.1" height="63.1"/>
      <rect class="cls-1" x="2527" y="1890.9" width="63.1" height="63.1"/>
      <rect class="cls-1" x="2590.1" y="1890.9" width="63.1" height="63.1"/>
      <rect x="2653.1" y="1890.9" width="63.1" height="63.1"/>
      <rect x="2716.2" y="1890.9" width="63.1" height="63.1"/>
      <rect x="823.9" y="1954" width="63.1" height="63.1"/>
      <rect x="886.9" y="1954" width="63.1" height="63.1"/>
      <rect class="cls-2" x="950" y="1954" width="63.1" height="63.1"/>
      <rect class="cls-3" x="1013.1" y="1954" width="63.1" height="63.1"/>
      <rect class="cls-3" x="1076.2" y="1954" width="63.1" height="63.1"/>
      <rect class="cls-3" x="1139.2" y="1954" width="63.1" height="63.1"/>
      <rect class="cls-1" x="1202.3" y="1954" width="63.1" height="63.1"/>
      <rect class="cls-1" x="1265.4" y="1954" width="63.1" height="63.1"/>
      <rect class="cls-2" x="1328.5" y="1954" width="63.1" height="63.1"/>
      <rect class="cls-2" x="1391.6" y="1954" width="63.1" height="63.1"/>
      <rect x="1454.6" y="1954" width="63.1" height="63.1"/>
      <rect class="cls-2" x="1517.7" y="1954" width="63.1" height="63.1"/>
      <rect class="cls-2" x="1580.8" y="1954" width="63.1" height="63.1"/>
      <rect class="cls-3" x="1643.9" y="1954" width="63.1" height="63.1"/>
      <rect x="1707" y="1954" width="63.1" height="63.1"/>
      <rect x="1770" y="1954" width="63.1" height="63.1"/>
      <rect x="1833.1" y="1954" width="63.1" height="63.1"/>
      <rect class="cls-5" x="1896.2" y="1954" width="63.1" height="63.1"/>
      <rect class="cls-5" x="1959.3" y="1954" width="63.1" height="63.1"/>
      <rect class="cls-5" x="2022.3" y="1954" width="63.1" height="63.1"/>
      <rect class="cls-5" x="2085.4" y="1954" width="63.1" height="63.1"/>
      <rect class="cls-5" x="2148.5" y="1954" width="63.1" height="63.1"/>
      <rect class="cls-4" x="2211.6" y="1954" width="63.1" height="63.1"/>
      <rect x="2274.7" y="1954" width="63.1" height="63.1"/>
      <rect x="2337.7" y="1954" width="63.1" height="63.1"/>
      <rect class="cls-1" x="2400.8" y="1954" width="63.1" height="63.1"/>
      <rect class="cls-1" x="2463.9" y="1954" width="63.1" height="63.1"/>
      <rect class="cls-1" x="2527" y="1954" width="63.1" height="63.1"/>
      <rect class="cls-1" x="2590.1" y="1954" width="63.1" height="63.1"/>
      <rect class="cls-1" x="2653.1" y="1954" width="63.1" height="63.1"/>
      <rect class="cls-1" x="2716.2" y="1954" width="63.1" height="63.1"/>
      <rect x="2779.3" y="1954" width="63.1" height="63.1"/>
      <rect x="2842.4" y="1954" width="63.1" height="63.1"/>
      <rect x="508.5" y="2017.1" width="63.1" height="63.1"/>
      <rect x="571.5" y="2017.1" width="63.1" height="63.1"/>
      <rect x="697.7" y="2017.1" width="63.1" height="63.1"/>
      <rect x="760.8" y="2017.1" width="63.1" height="63.1"/>
      <rect class="cls-2" x="823.9" y="2017.1" width="63.1" height="63.1"/>
      <rect class="cls-2" x="886.9" y="2017.1" width="63.1" height="63.1"/>
      <rect class="cls-2" x="950" y="2017.1" width="63.1" height="63.1"/>
      <rect class="cls-2" x="1013.1" y="2017.1" width="63.1" height="63.1"/>
      <rect class="cls-3" x="1076.2" y="2017.1" width="63.1" height="63.1"/>
      <rect class="cls-3" x="1139.2" y="2017.1" width="63.1" height="63.1"/>
      <rect class="cls-3" x="1202.3" y="2017.1" width="63.1" height="63.1"/>
      <rect class="cls-1" x="1265.4" y="2017.1" width="63.1" height="63.1"/>
      <rect x="1328.5" y="2017.1" width="63.1" height="63.1"/>
      <rect class="cls-2" x="1391.6" y="2017.1" width="63.1" height="63.1"/>
      <rect x="1454.6" y="2017.1" width="63.1" height="63.1"/>
      <rect class="cls-3" x="1517.7" y="2017.1" width="63.1" height="63.1"/>
      <rect x="1580.8" y="2017.1" width="63.1" height="63.1"/>
      <rect x="1643.9" y="2017.1" width="63.1" height="63.1"/>
      <rect x="1896.2" y="2017.1" width="63.1" height="63.1"/>
      <rect x="1959.3" y="2017.1" width="63.1" height="63.1"/>
      <rect class="cls-4" x="2022.3" y="2017.1" width="63.1" height="63.1"/>
      <rect class="cls-5" x="2085.4" y="2017.1" width="63.1" height="63.1"/>
      <rect x="2148.5" y="2017.1" width="63.1" height="63.1"/>
      <rect x="2211.6" y="2017.1" width="63.1" height="63.1"/>
      <rect class="cls-1" x="2274.7" y="2017.1" width="63.1" height="63.1"/>
      <rect class="cls-1" x="2337.7" y="2017.1" width="63.1" height="63.1"/>
      <rect x="2400.8" y="2017.1" width="63.1" height="63.1"/>
      <rect x="2463.9" y="2017.1" width="63.1" height="63.1"/>
      <rect class="cls-5" x="2527" y="2017.1" width="63.1" height="63.1"/>
      <rect class="cls-5" x="2590.1" y="2017.1" width="63.1" height="63.1"/>
      <rect class="cls-5" x="2653.1" y="2017.1" width="63.1" height="63.1"/>
      <rect class="cls-5" x="2716.2" y="2017.1" width="63.1" height="63.1"/>
      <rect class="cls-5" x="2779.3" y="2017.1" width="63.1" height="63.1"/>
      <rect class="cls-4" x="2842.4" y="2017.1" width="63.1" height="63.1"/>
      <rect x="2905.5" y="2017.1" width="63.1" height="63.1"/>
      <rect x="2968.5" y="2017.1" width="63.1" height="63.1"/>
      <rect x="445.4" y="2080.2" width="63.1" height="63.1"/>
      <rect class="cls-1" x="508.5" y="2080.2" width="63.1" height="63.1"/>
      <rect class="cls-2" x="571.5" y="2080.2" width="63.1" height="63.1"/>
      <rect x="634.6" y="2080.2" width="63.1" height="63.1"/>
      <rect class="cls-3" x="697.7" y="2080.2" width="63.1" height="63.1"/>
      <rect class="cls-2" x="760.8" y="2080.2" width="63.1" height="63.1"/>
      <rect class="cls-2" x="823.9" y="2080.2" width="63.1" height="63.1"/>
      <rect class="cls-2" x="886.9" y="2080.2" width="63.1" height="63.1"/>
      <rect class="cls-3" x="950" y="2080.2" width="63.1" height="63.1"/>
      <rect x="1013.1" y="2080.2" width="63.1" height="63.1"/>
      <rect class="cls-3" x="1076.2" y="2080.2" width="63.1" height="63.1"/>
      <rect class="cls-3" x="1139.2" y="2080.2" width="63.1" height="63.1"/>
      <rect class="cls-3" x="1202.3" y="2080.2" width="63.1" height="63.1"/>
      <rect class="cls-1" x="1265.4" y="2080.2" width="63.1" height="63.1"/>
      <rect class="cls-2" x="1328.5" y="2080.2" width="63.1" height="63.1"/>
      <rect class="cls-3" x="1391.6" y="2080.2" width="63.1" height="63.1"/>
      <rect x="1454.6" y="2080.2" width="63.1" height="63.1"/>
      <rect x="1517.7" y="2080.2" width="63.1" height="63.1"/>
      <rect x="2022.3" y="2080.2" width="63.1" height="63.1"/>
      <rect x="2085.4" y="2080.2" width="63.1" height="63.1"/>
      <rect class="cls-1" x="2148.5" y="2080.2" width="63.1" height="63.1"/>
      <rect class="cls-1" x="2211.6" y="2080.2" width="63.1" height="63.1"/>
      <rect class="cls-1" x="2274.7" y="2080.2" width="63.1" height="63.1"/>
      <rect class="cls-1" x="2337.7" y="2080.2" width="63.1" height="63.1"/>
      <rect class="cls-1" x="2400.8" y="2080.2" width="63.1" height="63.1"/>
      <rect class="cls-1" x="2463.9" y="2080.2" width="63.1" height="63.1"/>
      <rect x="2527" y="2080.2" width="63.1" height="63.1"/>
      <rect x="2590.1" y="2080.2" width="63.1" height="63.1"/>
      <rect class="cls-5" x="2653.1" y="2080.2" width="63.1" height="63.1"/>
      <rect class="cls-4" x="2716.2" y="2080.2" width="63.1" height="63.1"/>
      <rect x="2779.3" y="2080.2" width="63.1" height="63.1"/>
      <rect x="2842.4" y="2080.2" width="63.1" height="63.1"/>
      <rect class="cls-1" x="2905.5" y="2080.2" width="63.1" height="63.1"/>
      <rect class="cls-1" x="2968.5" y="2080.2" width="63.1" height="63.1"/>
      <rect x="3031.6" y="2080.2" width="63.1" height="63.1"/>
      <rect x="3094.7" y="2080.2" width="63.1" height="63.1"/>
      <rect x="382.3" y="2143.2" width="63.1" height="63.1"/>
      <rect class="cls-1" x="445.4" y="2143.2" width="63.1" height="63.1"/>
      <rect class="cls-1" x="508.5" y="2143.2" width="63.1" height="63.1"/>
      <rect class="cls-1" x="571.5" y="2143.2" width="63.1" height="63.1"/>
      <rect class="cls-2" x="634.6" y="2143.2" width="63.1" height="63.1"/>
      <rect class="cls-3" x="697.7" y="2143.2" width="63.1" height="63.1"/>
      <rect class="cls-3" x="760.8" y="2143.2" width="63.1" height="63.1"/>
      <rect x="823.9" y="2143.2" width="63.1" height="63.1"/>
      <rect x="886.9" y="2143.2" width="63.1" height="63.1"/>
      <rect x="950" y="2143.2" width="63.1" height="63.1"/>
      <rect class="cls-3" x="1013.1" y="2143.2" width="63.1" height="63.1"/>
      <rect class="cls-3" x="1076.2" y="2143.2" width="63.1" height="63.1"/>
      <rect class="cls-3" x="1139.2" y="2143.2" width="63.1" height="63.1"/>
      <rect class="cls-3" x="1202.3" y="2143.2" width="63.1" height="63.1"/>
      <rect class="cls-1" x="1265.4" y="2143.2" width="63.1" height="63.1"/>
      <rect x="1328.5" y="2143.2" width="63.1" height="63.1"/>
      <rect x="1391.6" y="2143.2" width="63.1" height="63.1"/>
      <rect x="2148.5" y="2143.2" width="63.1" height="63.1"/>
      <rect x="2211.6" y="2143.2" width="63.1" height="63.1"/>
      <rect class="cls-5" x="2274.7" y="2143.2" width="63.1" height="63.1"/>
      <rect class="cls-5" x="2337.7" y="2143.2" width="63.1" height="63.1"/>
      <rect class="cls-5" x="2400.8" y="2143.2" width="63.1" height="63.1"/>
      <rect class="cls-5" x="2463.9" y="2143.2" width="63.1" height="63.1"/>
      <rect class="cls-5" x="2527" y="2143.2" width="63.1" height="63.1"/>
      <rect class="cls-4" x="2590.1" y="2143.2" width="63.1" height="63.1"/>
      <rect x="2653.1" y="2143.2" width="63.1" height="63.1"/>
      <rect x="2716.2" y="2143.2" width="63.1" height="63.1"/>
      <rect class="cls-1" x="2779.3" y="2143.2" width="63.1" height="63.1"/>
      <rect class="cls-1" x="2842.4" y="2143.2" width="63.1" height="63.1"/>
      <rect class="cls-1" x="2905.5" y="2143.2" width="63.1" height="63.1"/>
      <rect class="cls-1" x="2968.5" y="2143.2" width="63.1" height="63.1"/>
      <rect class="cls-1" x="3031.6" y="2143.2" width="63.1" height="63.1"/>
      <rect class="cls-1" x="3094.7" y="2143.2" width="63.1" height="63.1"/>
      <rect x="3157.8" y="2143.2" width="63.1" height="63.1"/>
      <rect x="3220.8" y="2143.2" width="63.1" height="63.1"/>
      <rect x="382.3" y="2206.3" width="63.1" height="63.1"/>
      <rect class="cls-2" x="445.4" y="2206.3" width="63.1" height="63.1"/>
      <rect class="cls-1" x="508.5" y="2206.3" width="63.1" height="63.1"/>
      <rect class="cls-2" x="571.5" y="2206.3" width="63.1" height="63.1"/>
      <rect class="cls-2" x="634.6" y="2206.3" width="63.1" height="63.1"/>
      <rect x="697.7" y="2206.3" width="63.1" height="63.1"/>
      <rect x="760.8" y="2206.3" width="63.1" height="63.1"/>
      <rect x="1013.1" y="2206.3" width="63.1" height="63.1"/>
      <rect x="1076.2" y="2206.3" width="63.1" height="63.1"/>
      <rect x="1139.2" y="2206.3" width="63.1" height="63.1"/>
      <rect x="1202.3" y="2206.3" width="63.1" height="63.1"/>
      <rect x="1265.4" y="2206.3" width="63.1" height="63.1"/>
      <rect x="2274.7" y="2206.3" width="63.1" height="63.1"/>
      <rect x="2337.7" y="2206.3" width="63.1" height="63.1"/>
      <rect class="cls-5" x="2400.8" y="2206.3" width="63.1" height="63.1"/>
      <rect class="cls-4" x="2463.9" y="2206.3" width="63.1" height="63.1"/>
      <rect x="2527" y="2206.3" width="63.1" height="63.1"/>
      <rect x="2590.1" y="2206.3" width="63.1" height="63.1"/>
      <rect class="cls-1" x="2653.1" y="2206.3" width="63.1" height="63.1"/>
      <rect class="cls-1" x="2716.2" y="2206.3" width="63.1" height="63.1"/>
      <rect x="2779.3" y="2206.3" width="63.1" height="63.1"/>
      <rect x="2842.4" y="2206.3" width="63.1" height="63.1"/>
      <rect class="cls-5" x="2905.5" y="2206.3" width="63.1" height="63.1"/>
      <rect class="cls-5" x="2968.5" y="2206.3" width="63.1" height="63.1"/>
      <rect class="cls-5" x="3031.6" y="2206.3" width="63.1" height="63.1"/>
      <rect class="cls-5" x="3094.7" y="2206.3" width="63.1" height="63.1"/>
      <rect class="cls-5" x="3157.8" y="2206.3" width="63.1" height="63.1"/>
      <rect class="cls-5" x="3220.8" y="2206.3" width="63.1" height="63.1"/>
      <rect x="3283.9" y="2206.3" width="63.1" height="63.1"/>
      <rect x="3347" y="2206.3" width="63.1" height="63.1"/>
      <rect x="445.4" y="2269.4" width="63.1" height="63.1"/>
      <rect class="cls-2" x="508.5" y="2269.4" width="63.1" height="63.1"/>
      <rect class="cls-2" x="571.5" y="2269.4" width="63.1" height="63.1"/>
      <rect x="634.6" y="2269.4" width="63.1" height="63.1"/>
      <rect x="2400.8" y="2269.4" width="63.1" height="63.1"/>
      <rect x="2463.9" y="2269.4" width="63.1" height="63.1"/>
      <rect class="cls-1" x="2527" y="2269.4" width="63.1" height="63.1"/>
      <rect class="cls-1" x="2590.1" y="2269.4" width="63.1" height="63.1"/>
      <rect class="cls-1" x="2653.1" y="2269.4" width="63.1" height="63.1"/>
      <rect class="cls-1" x="2716.2" y="2269.4" width="63.1" height="63.1"/>
      <rect class="cls-1" x="2779.3" y="2269.4" width="63.1" height="63.1"/>
      <rect class="cls-1" x="2842.4" y="2269.4" width="63.1" height="63.1"/>
      <rect x="2905.5" y="2269.4" width="63.1" height="63.1"/>
      <rect x="2968.5" y="2269.4" width="63.1" height="63.1"/>
      <rect class="cls-5" x="3031.6" y="2269.4" width="63.1" height="63.1"/>
      <rect class="cls-5" x="3094.7" y="2269.4" width="63.1" height="63.1"/>
      <rect class="cls-5" x="3157.8" y="2269.4" width="63.1" height="63.1"/>
      <rect class="cls-5" x="3220.8" y="2269.4" width="63.1" height="63.1"/>
      <rect class="cls-5" x="3283.9" y="2269.4" width="63.1" height="63.1"/>
      <rect class="cls-4" x="3347" y="2269.4" width="63.1" height="63.1"/>
      <rect x="3410.1" y="2269.4" width="63.1" height="63.1"/>
      <rect x="508.5" y="2332.5" width="63.1" height="63.1"/>
      <rect x="571.5" y="2332.5" width="63.1" height="63.1"/>
      <rect x="2527" y="2332.5" width="63.1" height="63.1"/>
      <rect x="2590.1" y="2332.5" width="63.1" height="63.1"/>
      <rect class="cls-4" x="2653.1" y="2332.5" width="63.1" height="63.1"/>
      <rect class="cls-5" x="2716.2" y="2332.5" width="63.1" height="63.1"/>
      <rect class="cls-5" x="2779.3" y="2332.5" width="63.1" height="63.1"/>
      <rect class="cls-5" x="2842.4" y="2332.5" width="63.1" height="63.1"/>
      <rect class="cls-5" x="2905.5" y="2332.5" width="63.1" height="63.1"/>
      <rect class="cls-5" x="2968.5" y="2332.5" width="63.1" height="63.1"/>
      <rect x="3031.6" y="2332.5" width="63.1" height="63.1"/>
      <rect x="3094.7" y="2332.5" width="63.1" height="63.1"/>
      <rect class="cls-5" x="3157.8" y="2332.5" width="63.1" height="63.1"/>
      <rect class="cls-5" x="3220.8" y="2332.5" width="63.1" height="63.1"/>
      <rect x="3283.9" y="2332.5" width="63.1" height="63.1"/>
      <rect x="3347" y="2332.5" width="63.1" height="63.1"/>
      <rect x="2653.1" y="2395.6" width="63.1" height="63.1"/>
      <rect x="2716.2" y="2395.6" width="63.1" height="63.1"/>
      <rect class="cls-4" x="2779.3" y="2395.6" width="63.1" height="63.1"/>
      <rect class="cls-5" x="2842.4" y="2395.6" width="63.1" height="63.1"/>
      <rect class="cls-5" x="2905.5" y="2395.6" width="63.1" height="63.1"/>
      <rect class="cls-5" x="2968.5" y="2395.6" width="63.1" height="63.1"/>
      <rect class="cls-5" x="3031.6" y="2395.6" width="63.1" height="63.1"/>
      <rect class="cls-4" x="3094.7" y="2395.6" width="63.1" height="63.1"/>
      <rect x="3157.8" y="2395.6" width="63.1" height="63.1"/>
      <rect x="3220.8" y="2395.6" width="63.1" height="63.1"/>
      <rect x="2779.3" y="2458.6" width="63.1" height="63.1"/>
      <rect x="2842.4" y="2458.6" width="63.1" height="63.1"/>
      <rect class="cls-5" x="2905.5" y="2458.6" width="63.1" height="63.1"/>
      <rect class="cls-4" x="2968.5" y="2458.6" width="63.1" height="63.1"/>
      <rect x="3031.6" y="2458.6" width="63.1" height="63.1"/>
      <rect x="3094.7" y="2458.6" width="63.1" height="63.1"/>
      <rect x="2905.5" y="2521.7" width="63.1" height="63.1"/>
      <rect x="2968.5" y="2521.7" width="63.1" height="63.1"/>
    </g>
  </g>
</svg>